HIERARCHY
ROOT Hips
{
	OFFSET 0.00000 0.00000 0.00000
	CHANNELS 6 Xposition Yposition Zposition Zrotation Yrotation Xrotation 
	JOINT LHipJoint
	{
		OFFSET 0 0 0
		CHANNELS 3 Zrotation Yrotation Xrotation
		JOINT LeftHip
		{
			OFFSET 3.13874 -1.57224 1.49786
			CHANNELS 3 Zrotation Yrotation Xrotation
			JOINT LeftKnee
			{
				OFFSET 2.10955 -5.79594 0.00000
				CHANNELS 3 Zrotation Yrotation Xrotation
				JOINT LeftAnkle
				{
					OFFSET 2.41843 -6.64458 0.00000
					CHANNELS 3 Zrotation Yrotation Xrotation
					JOINT LeftToe
					{
						OFFSET 0.04713 -0.12948 1.66229
						CHANNELS 3 Zrotation Yrotation Xrotation
						End Site
						{
							OFFSET 0.00000 -0.00000 0.85167
						}
					}
				}
			}
		}
	}
	JOINT RHipJoint
	{
		OFFSET 0 0 0
		CHANNELS 3 Zrotation Yrotation Xrotation
		JOINT RightHip
		{
			OFFSET -3.13988 -1.57224 1.49786
			CHANNELS 3 Zrotation Yrotation Xrotation
			JOINT RightKnee
			{
				OFFSET -2.15006 -5.90725 0.00000
				CHANNELS 3 Zrotation Yrotation Xrotation
				JOINT RightAnkle
				{
					OFFSET -2.34496 -6.44273 0.00000
					CHANNELS 3 Zrotation Yrotation Xrotation
					JOINT RightToe
					{
						OFFSET -0.08699 -0.23900 1.55223
						CHANNELS 3 Zrotation Yrotation Xrotation
						End Site
						{
							OFFSET -0.00000 -0.00000 0.80281
						}
					}
				}
			}
		}
	}
	JOINT lowerback
	{
		OFFSET 0 0 0
		CHANNELS 3 Zrotation Yrotation Xrotation
		JOINT Chest
		{
			OFFSET 0.01292 1.96517 -0.16495
			CHANNELS 3 Zrotation Yrotation Xrotation
			JOINT Chest2
			{
				OFFSET 0.02122 1.88666 0.19706
				CHANNELS 3 Zrotation Yrotation Xrotation
				JOINT lowerneck
				{
					OFFSET 0 0 0
					CHANNELS 3 Zrotation Yrotation Xrotation
					JOINT Neck
					{
						OFFSET -0.01683 1.81591 0.07903
						CHANNELS 3 Zrotation Yrotation Xrotation
						JOINT Head
						{
							OFFSET 0.00815 1.74013 -0.47700
							CHANNELS 3 Zrotation Yrotation Xrotation
							End Site
							{
								OFFSET -0.00204 1.83225 -0.16933
							}
						}
					}
				}
				JOINT LeftCollar
				{
					OFFSET 0 0 0
					CHANNELS 3 Zrotation Yrotation Xrotation
					JOINT LeftShoulder
					{
						OFFSET 3.38482 1.41533 0.19802
CHANNELS 3 Zrotation Xrotation Yrotation
						JOINT LeftElbow
						{
OFFSET 0 -4.327120 0.000000
CHANNELS 3 Zrotation Xrotation Yrotation
							JOINT LeftWrist
							{
OFFSET 0 -3.285870 -0.000000
CHANNELS 3 Zrotation Xrotation Yrotation
								JOINT lhand
								{
									OFFSET 0 0 0
CHANNELS 3 Zrotation Xrotation Yrotation
									JOINT LFingers
									{
OFFSET 0 -0.433160 -0.000000
CHANNELS 3 Zrotation Xrotation Yrotation
										End Site
										{
OFFSET 0 -0.349220 -0.000000
										}
									}
								}
								JOINT LThumb
								{
OFFSET 0 0.000000 0.000000
CHANNELS 3 Zrotation Xrotation Yrotation
									End Site
									{
OFFSET 0 -0.354560 0.354560
									}
								}
							}
						}
					}
				}
				JOINT RightCollar
				{
					OFFSET 0 0 0
					CHANNELS 3 Zrotation Yrotation Xrotation
					JOINT RightShoulder
					{
						OFFSET -3.09725 1.62858 -0.14144
CHANNELS 3 Zrotation Xrotation Yrotation
						JOINT RightElbow
						{
OFFSET 0 -4.291040 0.000000
CHANNELS 3 Zrotation Xrotation Yrotation
							JOINT RightWrist
							{
OFFSET 0 -3.227200 -0.000000
CHANNELS 3 Zrotation Xrotation Yrotation
								JOINT rhand
								{
									OFFSET 0 0 0
CHANNELS 3 Zrotation Xrotation Yrotation
									JOINT RFingers
									{
OFFSET 0 -0.543620 -0.000000
CHANNELS 3 Zrotation Xrotation Yrotation
										End Site
										{
OFFSET 0 -0.438280 -0.000000
										}
									}
								}
								JOINT RThumb
								{
OFFSET 0 0.000000 0.000000
CHANNELS 3 Zrotation Xrotation Yrotation
									End Site
									{
OFFSET 0 -0.444970 0.444970
									}
								}
							}
						}
					}
				}
			}
		}
	}
}
MOTION
Frames: 5
Frame Time: 0.008333333333333333
16.921362 16.539385 -3.496482 -85.965374 78.051115 -80.880392 0.000000 0.000000 0.000000 -7.753258 -32.648382 -20.507310 0.202040 2.894446 7.985016 2.800870 2.108042 -32.433951 10.361528 -17.605167 -60.685922 0.000000 0.000000 0.000000 41.434604 -12.290136 -0.722802 -3.374301 -11.232397 33.120224 1.467858 -24.180968 4.231977 -0.022930 -0.967820 2.660375 8.766403 2.088321 6.231349 5.452510 5.182151 -9.695470 0.193695 2.131856 -14.095665 -2.970368 -3.395126 -13.425010 -6.444144 0.735081 41.370838 -2.056411 -0.277074 17.602936 0.000000 0.000000 0.000000 15.196432 47.722259 -39.798725 78.291612 -59.473364 49.878347 41.497275 29.287557 -29.783012 0.000000 0.000000 0.000000 -7.125000 0.000000 0.000000 14.915809 66.798012 -7.906612 0.000000 0.000000 0.000000 -27.763314 22.512652 46.715809 -70.899044 -58.574944 -43.537279 -32.417580 -6.674263 10.041279 0.000000 0.000000 0.000000 7.125000 0.000000 0.000000 -4.849485 41.776838 -0.386967
17.051486 16.528656 -3.487847 -84.988722 78.040645 -80.014277 0.000000 0.000000 0.000000 -8.027274 -32.438946 -20.071130 0.201021 2.887237 7.964947 2.712311 2.011125 -31.899354 10.468785 -17.663002 -61.041067 0.000000 0.000000 0.000000 41.267511 -12.352807 -0.971505 -3.578104 -11.545291 34.180172 1.554175 -24.605603 3.897532 -0.025191 -1.017761 2.797726 8.653810 2.105462 6.190248 5.471931 5.179853 -9.661410 0.278585 2.145569 -14.036496 -3.031205 -3.340979 -13.499931 -6.253331 0.777442 41.484914 -1.955733 -0.243422 17.688808 0.000000 0.000000 0.000000 15.391896 47.910978 -39.807175 78.570835 -59.498992 50.118841 41.423226 28.981872 -29.806435 0.000000 0.000000 0.000000 -7.125000 0.000000 0.000000 14.797026 66.801737 -7.843737 0.000000 0.000000 0.000000 -27.870441 22.600655 46.907826 -71.032133 -58.595532 -43.650836 -32.357039 -6.808390 10.077636 0.000000 0.000000 0.000000 7.125000 0.000000 0.000000 -4.794356 41.812714 -0.378202
17.181610 16.517927 -3.479212 -84.012071 78.030175 -79.148162 0.000000 0.000000 0.000000 -8.301290 -32.229510 -19.634950 0.200002 2.880029 7.944878 2.623752 1.914209 -31.364756 10.576042 -17.720837 -61.396211 0.000000 0.000000 0.000000 41.100418 -12.415479 -1.220208 -3.781907 -11.858185 35.240120 1.640492 -25.030238 3.563086 -0.027452 -1.067702 2.935077 8.541216 2.122603 6.149146 5.491351 5.177555 -9.627351 0.363475 2.159282 -13.977327 -3.092042 -3.286832 -13.574851 -6.062519 0.819804 41.598990 -1.855054 -0.209770 17.774680 0.000000 0.000000 0.000000 15.587359 48.099696 -39.815625 78.850058 -59.524621 50.359335 41.349176 28.676186 -29.829858 0.000000 0.000000 0.000000 -7.125000 0.000000 0.000000 14.678243 66.805462 -7.780862 0.000000 0.000000 0.000000 -27.977568 22.688658 47.099843 -71.165222 -58.616120 -43.764393 -32.296499 -6.942516 10.113994 0.000000 0.000000 0.000000 7.125000 0.000000 0.000000 -4.739227 41.848589 -0.369437
17.312462 16.497539 -3.471081 -83.047617 78.071976 -78.315552 0.000000 0.000000 0.000000 -8.720649 -31.911625 -19.137183 0.205015 2.914334 8.040375 2.518091 1.949559 -30.730743 10.611668 -17.739699 -61.513745 0.000000 0.000000 0.000000 40.858247 -12.491404 -1.476221 -4.010225 -12.152135 36.304169 1.751756 -25.244185 2.176762 -0.024245 -0.972553 2.673444 8.352905 2.127412 6.090066 5.515496 5.144680 -9.576783 0.500859 2.166383 -13.893538 -3.022262 -3.247558 -13.581082 -6.032590 0.847917 41.637290 -1.850359 -0.182967 17.797643 0.000000 0.000000 0.000000 15.818126 48.107354 -39.997202 78.654432 -59.506477 50.190859 41.491907 28.411940 -29.714417 0.000000 0.000000 0.000000 -7.125000 0.000000 0.000000 14.903796 66.718017 -7.870327 0.000000 0.000000 0.000000 -28.114173 22.770480 47.285827 -71.156728 -58.614881 -43.757139 -32.204430 -7.053286 10.134869 0.000000 0.000000 0.000000 7.125000 0.000000 0.000000 -4.655629 41.862847 -0.361266
17.443493 16.474765 -3.463076 -82.086179 78.126698 -77.491225 0.000000 0.000000 0.000000 -9.175934 -31.566932 -18.624193 0.211520 2.958901 8.164439 2.408203 2.017604 -30.072156 10.629587 -17.748928 -61.572543 0.000000 0.000000 0.000000 40.597517 -12.570605 -1.734041 -4.244604 -12.441402 37.369232 1.869186 -25.406053 0.530423 -0.019686 -0.841540 2.313185 8.145878 2.129172 6.026543 5.540809 5.104245 -9.522136 0.651218 2.171850 -13.803663 -2.920193 -3.211960 -13.570334 -6.042430 0.872507 41.656859 -1.869390 -0.157858 17.805056 0.000000 0.000000 0.000000 16.057619 48.070255 -40.221574 78.341427 -59.477513 49.921290 41.688223 28.157937 -29.564650 0.000000 0.000000 0.000000 -7.125000 0.000000 0.000000 15.214466 66.608036 -7.997448 0.000000 0.000000 0.000000 -28.258065 22.850774 47.470321 -71.113236 -58.608247 -43.720022 -32.104567 -7.158282 10.151918 0.000000 0.000000 0.000000 7.125000 0.000000 0.000000 -4.564994 41.871760 -0.353243
